<?xml version="1.0" encoding="utf-8"?>
<!-- Svg Vector Icons : http://www.onlinewebfonts.com/icon -->
<!DOCTYPE svg PUBLIC "-//W3C//DTD SVG 1.1//EN" "http://www.w3.org/Graphics/SVG/1.1/DTD/svg11.dtd">
<svg version="1.1" xmlns="http://www.w3.org/2000/svg" xmlns:xlink="http://www.w3.org/1999/xlink" x="0px" y="0px" viewBox="0 0 1000 1000" enable-background="new 0 0 1000 1000" xml:space="preserve">
<metadata> Svg Vector Icons : http://www.onlinewebfonts.com/icon </metadata>
<g><g transform="translate(0.000000,119.000000) scale(0.100000,-0.100000)"><path d="M3847.5,872.3c-1980.8-701.1-3383-2620.5-3383-4645.1c0-3462,3453.1-5837.1,6678.4-4610C7730.1-8155,8475.1-7673,9097.3-7112l438.2,394.4l-823.9,8.7c-447,0-1060.4,61.4-1358.5,140.3c-1498.7,385.6-2752,1533.8-3365.5,3085c-201.6,508.4-227.9,718.7-227.9,1551.3c0,1086.8,149,1603.8,701.1,2427.7c166.5,245.4,324.3,482,350.6,525.9C4899.2,1152.8,4452.2,1091.4,3847.5,872.3z"
fill="grey"/></g></g>
</svg>