<?xml version="1.0" encoding="utf-8"?>
<!-- Svg Vector Icons : http://www.onlinewebfonts.com/icon -->
<!DOCTYPE svg PUBLIC "-//W3C//DTD SVG 1.1//EN" "http://www.w3.org/Graphics/SVG/1.1/DTD/svg11.dtd">
<svg version="1.1" xmlns="http://www.w3.org/2000/svg" xmlns:xlink="http://www.w3.org/1999/xlink" x="0px" y="0px" viewBox="0 0 1000 1000" enable-background="new 0 0 1000 1000" xml:space="preserve">
<metadata> Svg Vector Icons : http://www.onlinewebfonts.com/icon </metadata>
<g><path d="M745,377.5C745,500,622.5,620.6,622.5,745h-245c0-120.6-122.5-245-122.5-367.5c0-135.3,109.7-245,245-245C635.3,132.5,745,242.2,745,377.5z M591.9,867.5H408.1c-16.9,0-30.6,13.7-30.6,30.6c0,16.9,13.7,30.6,30.6,30.6h5.6C426.4,964.4,460,990,500,990c40,0,73.6-25.6,86.3-61.3h5.6c16.9,0,30.6-13.7,30.6-30.6C622.5,881.2,608.8,867.5,591.9,867.5z M591.9,775.6H408.1c-16.9,0-30.6,13.7-30.6,30.6c0,16.9,13.7,30.6,30.6,30.6h183.8c16.9,0,30.6-13.7,30.6-30.6C622.5,789.3,608.8,775.6,591.9,775.6z M166.4,220.3l55,31.7c8.5-18.8,18.8-36.4,30.8-52.9L197,167.2L166.4,220.3z M530.6,74.4V10h-61.3v64.4c10.2-1.1,20.1-3.1,30.6-3.1S520.4,73.3,530.6,74.4z M374.5,98.9l-31.7-55l-53.1,30.6l31.9,55.1C338.1,117.7,355.7,107.4,374.5,98.9z M833.6,220.3L803,167.2l-55.2,31.9c12,16.6,22.4,34.2,30.9,52.9L833.6,220.3z M710.2,74.5l-53-30.6l-31.7,55c18.7,8.5,36.4,18.8,52.9,30.7L710.2,74.5z M193.7,377.5c0-10.5,2-20.4,3.1-30.6h-64.4v61.3H197C195.8,398,193.7,387.9,193.7,377.5z M803.1,346.9c1.1,10.2,3.1,20.1,3.1,30.6c0,10.4-2,20.5-3.2,30.6h64.5v-61.3H803.1z M752.8,558.8l50.1,29l30.6-53.1L778,502.6C770.2,521.7,761.9,540.3,752.8,558.8z M166.4,534.7l30.6,53.1l49.7-28.7c-9-18.5-17.3-37.3-24.9-56.3L166.4,534.7z"
fill="#D9E60D"/></g>
</svg>